# xmcd CD database file
#
# Track frame offsets:
#	150
#	48471
#	77803
#	96969
#	134144
#	153540
#
# Disc length: 2519 seconds
#
# Revision: 0
# Processed by: cddbd v1.5.1PL2 Copyright (c) Steve Scherf et al.
# Submitted via: CDex 1.51
#
DISCID=5009d506
DTITLE=jan Allan - Jan Allan-70
DYEAR=1968
DGENRE=Jazz
TTITLE0=Polska With Trumpet
TTITLE1=Debalira
TTITLE2=Ballad for Trumpet
TTITLE3=Rapid
TTITLE4=Odin's Eyes
TTITLE5=Rolf Billberg In Memoriam
EXTD=YEAR: 1968
EXTT0=
EXTT1=
EXTT2=
EXTT3=
EXTT4=
EXTT5=
PLAYORDER=
